<?xml version="1.0" encoding="UTF-8"?>
<svg id="Layer_2" xmlns="http://www.w3.org/2000/svg" version="1.1" viewBox="0 0 260.1 251.6">
  <!-- Generator: Adobe Illustrator 29.3.1, SVG Export Plug-In . SVG Version: 2.1.0 Build 151)  -->
  <defs>
    <style>
      .st0 {
        fill: #db007e;
      }
    </style>
  </defs>
  <g id="Layer_1-2">
    <g>
      <path class="st0" d="M199,181.9c19.4,19.4,38.3,38.2,57,56.9-4.6,4.4-8.9,8.6-13.5,12.9C163.4,172.5,83.8,92.9,4.3,13.3,8.6,9,13,4.7,17.8,0c3.7,3.9,7.7,8.2,11.8,12.3,15.6,15.7,31.3,31.4,47,47,1.2,1.2,3.9,2.3,5.4,1.9,50.5-17.4,96.4-7.4,138.5,23.7,14.3,10.5,26.9,22.8,37.7,37,2.6,3.4,2.3,5.9-.2,9.1-15,19.3-32.8,35.3-53.8,47.8-1.5.9-3.1,1.9-5.2,3.2h0ZM98.7,81.2c6.1,6.1,12.1,12.3,18.3,18.3.8.8,2.7.9,3.9.6,10.8-3.3,20.7-1.6,28.6,6.5,7.8,7.9,10.2,17.7,6.7,28.6-.4,1.2-.2,3.2.5,4,6.2,6.2,12.5,12.2,18.8,18.2,15.7-20.4,12.1-52.5-7.6-71.2-20.8-19.8-52.5-18.6-69.2-5h0ZM194.5,89.8c12.5,24.2,12.4,48.4-.2,73,13.4-6,36.5-26.1,42.5-36.7-11.8-14.7-25.8-26.8-42.3-36.3h0Z"/>
      <path class="st0" d="M44.8,81.1c4.4,4.3,8.7,8.4,12.6,12.3-11.9,10.6-23.8,21.1-36,32,13.3,15,27.1,27.2,44.7,37.4-11.1-21.7-12.7-42.7-3.8-65.3,4.7,4.8,9,9.1,13,13.7.9,1,.6,3.4.4,5-3.1,21.7,3.4,39.8,20.6,53.6,12.9,10.5,28,13.5,44.2,10.6,3.1-.6,4.9.2,6.9,2.2,4.2,4.2,8.8,8.1,12.8,12.7-12.6,3.6-24.8,5-37.3,4.1-49.6-3.6-87.3-28.5-118.3-65.6-6.1-7.3-5.9-8.2,0-15.4,11.7-14.4,25.2-27,40.3-37.4h0Z"/>
    </g>
  </g>
</svg>